<svg width="18" height="20" viewBox="0 0 18 20" fill="none" xmlns="http://www.w3.org/2000/svg">
<path opacity="0.4" d="M17.1992 2V4.2C17.1992 5 16.6992 6 16.1992 6.5L11.8992 10.3C11.2992 10.8 10.8992 11.8 10.8992 12.6V16.9C10.8992 17.5 10.4992 18.3 9.99922 18.6L8.59922 19.5C7.29922 20.3 5.49922 19.4 5.49922 17.8V12.5C5.49922 11.8 5.09922 10.9 4.69922 10.4L3.69922 9.35L9.51922 0H15.1992C16.2992 0 17.1992 0.9 17.1992 2Z" fill="white"/>
<path d="M7.9 0L2.72 8.31L0.9 6.4C0.4 5.9 0 5 0 4.4V2.1C0 0.9 0.9 0 2 0H7.9Z" fill="white"/>
</svg>
