<svg width="19" height="21" viewBox="0 0 19 21" fill="none" xmlns="http://www.w3.org/2000/svg">
<path opacity="0.4" d="M0.800098 20.1H17.8001C18.2001 20.1 18.6001 19.8 18.6001 19.3C18.6001 18.8 18.3001 18.5 17.8001 18.5H0.800098C0.400099 18.5 9.91821e-05 18.8 9.91821e-05 19.3C9.91821e-05 19.8 0.400099 20.1 0.800098 20.1Z" fill="white"/>
<path d="M2.2999 15.5002C2.4999 15.5002 2.6999 15.4002 2.7999 15.3002L16.7999 1.3002C17.0999 1.0002 17.0999 0.600195 16.7999 0.300195C16.4999 0.00019531 15.9999 0.00019531 15.6999 0.300195L1.6999 14.3002C1.3999 14.6002 1.3999 15.1002 1.6999 15.4002C1.8999 15.5002 2.0999 15.5002 2.2999 15.5002Z" fill="white"/>
<path d="M16.3001 11.8C16.7001 11.8 17.1001 11.5 17.1001 11V0.8C17.1001 0.4 16.8001 0 16.3001 0H6.0001C5.6001 0 5.2001 0.3 5.2001 0.8C5.2001 1.3 5.5001 1.6 6.0001 1.6H15.5001V11.1C15.5001 11.5 15.9001 11.8 16.3001 11.8Z" fill="white"/>
</svg>
