<svg width="24" height="24" viewBox="0 0 24 24" fill="none" xmlns="http://www.w3.org/2000/svg">
<path d="M21.09 6.97953C20.24 6.03953 18.82 5.56953 16.76 5.56953H16.52V5.52953C16.52 3.84953 16.52 1.76953 12.76 1.76953H11.24C7.48004 1.76953 7.48004 3.85953 7.48004 5.52953V5.57953H7.24004C5.17004 5.57953 3.76004 6.04953 2.91004 6.98953C1.92004 8.08953 1.95004 9.56953 2.05004 10.5795L2.06004 10.6495L2.16004 11.6995C2.17004 11.7095 2.19004 11.7295 2.21004 11.7395C2.54004 11.9595 2.88004 12.1795 3.24004 12.3795C3.38004 12.4695 3.53004 12.5495 3.68004 12.6295C5.39004 13.5695 7.27004 14.1995 9.18004 14.5095C9.27004 15.4495 9.68004 16.5495 11.87 16.5495C14.06 16.5495 14.49 15.4595 14.56 14.4895C16.6 14.1595 18.57 13.4495 20.35 12.4095C20.41 12.3795 20.45 12.3495 20.5 12.3195C20.96 12.0595 21.39 11.7795 21.81 11.4695C21.8313 11.4583 21.8488 11.4408 21.86 11.4195L21.9 11.0595L21.95 10.5895C21.96 10.5295 21.96 10.4795 21.97 10.4095C22.05 9.39953 22.03 8.01953 21.09 6.97953ZM13.09 13.8295C13.09 14.8895 13.09 15.0495 11.86 15.0495C10.63 15.0495 10.63 14.8595 10.63 13.8395V12.5795H13.09V13.8295ZM8.91004 5.56953V5.52953C8.91004 3.82953 8.91004 3.19953 11.24 3.19953H12.76C15.09 3.19953 15.09 3.83953 15.09 5.52953V5.57953H8.91004V5.56953Z" fill="#A3A3A3"/>
<path opacity="0.4" d="M20.5002 12.2995L20.3502 12.3895C18.5624 13.4285 16.6004 14.1333 14.5602 14.4695C14.4802 15.4295 14.0602 16.5295 11.8702 16.5295C9.68016 16.5295 9.26016 15.4395 9.18016 14.4895C7.27016 14.1895 5.39016 13.5595 3.68016 12.6095C3.53016 12.5295 3.38016 12.4495 3.24016 12.3595C2.88016 12.1595 2.54016 11.9395 2.21016 11.7195C2.19016 11.7095 2.17016 11.6895 2.16016 11.6795L2.77016 18.1895C2.98016 20.1795 3.80016 22.2295 8.20016 22.2295H15.8202C20.2202 22.2295 21.0402 20.1795 21.2502 18.1795L21.8802 11.3995C21.8689 11.4208 21.8515 11.4383 21.8302 11.4495C21.4002 11.7595 20.9602 12.0495 20.5002 12.2995Z" fill="#A3A3A3"/>
</svg>
